<svg aria-hidden="true" style="position:absolute;width:0;height:0;overflow:hidden" xmlns="http://www.w3.org/2000/svg">
  <defs>
  <symbol id="charging" viewBox="0 0 34 32">
      <path d="M27.667 14.667h-1.333V9.334h1.333v-4h2.667v4h1.333v5.333h-1.333V24a3.999 3.999 0 0 1-6.828 2.828A4.003 4.003 0 0 1 22.334 24v-5.333h-2.667v6.667H21v2.667H3.667v-2.667H5v-20A1.335 1.335 0 0 1 6.334 4h12a1.335 1.335 0 0 1 1.334 1.334v10.667h2.667a2.668 2.668 0 0 1 2.667 2.667v5.333a1.333 1.333 0 1 0 2.666 0v-9.333zM17 25.333V6.666H7.667v18.667H17zm-4-10.666h4l-5.333 8v-5.333h-4l5.333-8v5.333z"/>
    </symbol>
    <symbol id="speed" viewBox="0 0 34 32">
      <path d="M17 2.667c7.364 0 13.333 5.969 13.333 13.333S24.364 29.333 17 29.333 3.667 23.364 3.667 16 9.636 2.667 17 2.667zm0 2.666a10.666 10.666 0 1 0 0 21.333 10.666 10.666 0 0 0 0-21.333zm5.111 4.45a.797.797 0 0 1 1.017.089.79.79 0 0 1 .084 1.013c-2.907 4.061-4.507 6.237-4.797 6.529a2 2 0 0 1-2.83-2.83c.499-.497 2.673-2.099 6.525-4.803zm2.222 4.884a1.33 1.33 0 0 1 1.333 1.334 1.333 1.333 0 1 1-1.333-1.334zm-14.666 0a1.335 1.335 0 0 1 .943 2.277 1.335 1.335 0 0 1-1.886 0 1.335 1.335 0 0 1 0-1.886c.251-.25.589-.391.943-.391zm3.09-4.795a1.335 1.335 0 1 1-.432-.289c.161.067.309.166.433.29zM17 7.333a1.335 1.335 0 0 1 .943 2.277 1.335 1.335 0 0 1-1.886 0 1.335 1.335 0 0 1 0-1.886c.251-.25.589-.391.943-.391z"/>
    </symbol>
    <symbol id="stats" viewBox="0 0 34 32">
      <path d="M6.333 6.667v18.667h21.333V6.667H6.333zM5 4h24a1.33 1.33 0 0 1 1.333 1.334v21.333A1.333 1.333 0 0 1 29 28.001H5a1.335 1.335 0 0 1-1.334-1.334V5.334A1.335 1.335 0 0 1 5 4zm15.724 9.057-2.391-2.391H25v6.667l-2.391-2.391-5.152 5.152-2.828-2.828-3.772 3.771-1.885-1.885 5.657-5.657 2.828 2.829 3.267-3.267z"/>
    </symbol>
    <symbol id="facebook" viewBox="0 0 32 32">
      <path d="M18.667 18H22l1.333-5.333h-4.667V10c0-1.373 0-2.667 2.667-2.667h2v-4.48c-.435-.057-2.076-.187-3.809-.187-3.62 0-6.191 2.209-6.191 6.267v3.733h-4v5.333h4v11.333h5.333V17.999z"/>
    </symbol>
    <symbol id="flashlight" viewBox="0 0 32 32">
      <path d="M17.333 13.333h9.333l-12 17.333v-12H5.333l12-17.333v12z"/>
    </symbol>
    <symbol id="instagram" viewBox="0 0 32 32">
      <path d="M16 12a4.003 4.003 0 0 0-4 4 4.003 4.003 0 0 0 4 4 4.003 4.003 0 0 0 4-4 4.003 4.003 0 0 0-4-4zm0-2.667a6.67 6.67 0 0 1 4.714 11.381A6.668 6.668 0 1 1 16 9.333zM24.667 9a1.667 1.667 0 1 1-3.334 0 1.667 1.667 0 0 1 3.334 0zM16 5.333c-3.299 0-3.837.009-5.372.077-1.045.049-1.747.189-2.397.443-.545.2-1.037.52-1.44.937a3.86 3.86 0 0 0-.939 1.44c-.253.653-.393 1.353-.441 2.397-.069 1.472-.077 1.987-.077 5.372 0 3.299.009 3.837.077 5.372.049 1.044.189 1.747.441 2.396.227.58.493.997.936 1.44.449.448.867.716 1.44.937.659.255 1.36.396 2.4.444 1.472.069 1.987.077 5.372.077 3.299 0 3.837-.009 5.372-.077 1.043-.049 1.745-.189 2.396-.441a3.893 3.893 0 0 0 1.44-.936c.449-.449.717-.867.939-1.44.253-.657.395-1.36.443-2.4.069-1.472.077-1.987.077-5.372 0-3.299-.009-3.837-.077-5.372-.049-1.043-.189-1.747-.443-2.397a3.883 3.883 0 0 0-.937-1.44 3.847 3.847 0 0 0-1.44-.939c-.653-.253-1.355-.393-2.397-.441-1.472-.069-1.987-.077-5.372-.077zm0-2.666c3.623 0 4.075.013 5.496.08 1.42.067 2.387.289 3.237.62a6.51 6.51 0 0 1 2.363 1.537 6.538 6.538 0 0 1 1.537 2.363c.329.849.553 1.817.62 3.237.063 1.421.08 1.873.08 5.496s-.013 4.075-.08 5.496c-.067 1.42-.291 2.387-.62 3.237a6.53 6.53 0 0 1-1.537 2.363 6.55 6.55 0 0 1-2.363 1.537c-.849.329-1.817.553-3.237.62-1.421.063-1.873.08-5.496.08s-4.075-.013-5.496-.08c-1.42-.067-2.387-.291-3.237-.62a6.53 6.53 0 0 1-2.363-1.537 6.53 6.53 0 0 1-1.537-2.363c-.331-.849-.553-1.817-.62-3.237-.063-1.421-.08-1.873-.08-5.496s.013-4.075.08-5.496c.067-1.421.289-2.387.62-3.237a6.516 6.516 0 0 1 1.537-2.363 6.53 6.53 0 0 1 2.363-1.537c.851-.331 1.816-.553 3.237-.62 1.421-.063 1.873-.08 5.496-.08z"/>
    </symbol>
    <symbol id="logo" viewBox="0 0 103 32">
      <path d="M40.425 23.366c-.388 0-.799-.031-1.233-.093a4.22 4.22 0 0 1-1.257-.442c-.388-.233-.706-.582-.954-1.047s-.372-1.094-.372-1.885V9.706c0-.683.101-1.257.303-1.722.217-.465.496-.83.838-1.094a2.957 2.957 0 0 1 1.14-.582 4.647 4.647 0 0 1 1.28-.186c1.008.016 1.932.039 2.769.07.853.016 1.645.039 2.374.07s1.427.062 2.095.093v1.932h-6.609c-.574 0-1.024.147-1.35.442s-.489.76-.489 1.396v3.561l7.401.14v1.815l-7.401.163v3.514c0 .528.085.923.256 1.187.186.264.419.442.698.535.295.093.605.14.931.14h6.563v1.932c-.714.047-1.466.093-2.257.14-.791.031-1.59.054-2.397.07-.791.031-1.567.047-2.327.047zm13.308-.07c-.76 0-1.404-.132-1.932-.396-.512-.264-.9-.683-1.164-1.257-.248-.59-.372-1.381-.372-2.374V5.515h2.327v13.452c0 .652.062 1.156.186 1.513.14.341.326.582.559.721.248.14.535.233.861.279l1.164.14v1.676h-1.629zm8.42.116c-1.319 0-2.374-.194-3.165-.582-.776-.388-1.334-1.04-1.676-1.955-.326-.931-.489-2.211-.489-3.84 0-1.66.163-2.948.489-3.863.341-.931.9-1.583 1.676-1.955s1.823-.559 3.142-.559c1.148 0 2.071.124 2.769.372.714.233 1.233.659 1.559 1.28.341.605.512 1.451.512 2.537 0 .76-.155 1.365-.465 1.815-.295.45-.721.776-1.28.977-.543.202-1.195.303-1.955.303h-4.119c.015.9.116 1.621.303 2.164.202.528.551.915 1.047 1.164.512.233 1.257.349 2.234.349h3.887v1.396a75.81 75.81 0 0 1-2.048.256c-.698.093-1.505.14-2.42.14zm-3.025-6.935h3.933c.62 0 1.078-.116 1.373-.349s.442-.659.442-1.28-.093-1.109-.279-1.466c-.171-.357-.458-.613-.861-.768s-.939-.233-1.606-.233c-.76 0-1.365.116-1.815.349-.434.233-.745.644-.931 1.233-.171.59-.256 1.427-.256 2.513zm15.314 6.935a7.03 7.03 0 0 1-2.025-.279 4.067 4.067 0 0 1-1.606-1.001c-.45-.465-.799-1.109-1.047-1.932s-.372-1.862-.372-3.119c0-1.288.116-2.343.349-3.165.233-.838.566-1.489 1.001-1.955.45-.481.993-.815 1.629-1.001s1.35-.279 2.141-.279c.652 0 1.334.031 2.048.093.729.062 1.435.163 2.118.303v1.373h-3.514c-.76 0-1.396.124-1.908.372-.512.233-.892.69-1.14 1.373-.248.667-.372 1.637-.372 2.909 0 1.226.132 2.172.396 2.839.264.652.644 1.094 1.14 1.327.512.233 1.148.349 1.908.349h3.677v1.327c-.357.093-.784.178-1.28.256-.481.062-.993.109-1.536.14-.528.047-1.063.07-1.606.07zm9.268 0c-.915 0-1.676-.272-2.281-.815-.59-.559-.884-1.327-.884-2.304v-.977c0-.962.326-1.745.977-2.351.667-.621 1.668-.931 3.002-.931h3.887v-1.303c0-.481-.085-.884-.256-1.21-.155-.341-.45-.597-.884-.768s-1.078-.256-1.932-.256h-3.817v-1.373a21.32 21.32 0 0 1 1.955-.326 25.46 25.46 0 0 1 2.653-.163c1.024 0 1.877.132 2.56.396.698.248 1.218.667 1.559 1.257.341.574.512 1.342.512 2.304v8.681h-1.839l-.396-1.373a13.81 13.81 0 0 1-.582.349c-.295.155-.675.326-1.14.512a9.34 9.34 0 0 1-1.489.465 7 7 0 0 1-1.606.186zm1.071-1.699c.233.016.504-.008.815-.07.326-.062.644-.132.954-.209.326-.093.621-.186.884-.279.279-.093.504-.171.675-.233a2.07 2.07 0 0 0 .303-.14v-3.584l-3.258.14c-.807.047-1.389.248-1.745.605-.341.357-.512.822-.512 1.396v.559c0 .45.093.815.279 1.094.186.264.419.45.698.559.295.109.597.163.908.163zm9.143 1.56V10.822h1.792l.535 2.095c.528-.636 1.117-1.171 1.769-1.606s1.412-.652 2.281-.652c.202 0 .396.016.582.047.186.016.365.047.535.093v2.397a9.265 9.265 0 0 0-.675-.07 5.458 5.458 0 0 0-.721-.047c-.527 0-1.001.062-1.42.186s-.822.318-1.21.582a8.403 8.403 0 0 0-1.14.931v8.495h-2.327zM26.424 16.971a12.131 12.131 0 0 1-10.182 9.578v-2.455a9.706 9.706 0 0 0 7.695-7.124l2.487.001zm-21.27 0a9.711 9.711 0 0 0 7.572 7.1v2.46a12.136 12.136 0 0 1-10.059-9.562l2.487.001zm16.664-3.638v2.424h-1.212a4.852 4.852 0 0 0-4.843 4.606l-.006.242v1.212h-2.424v-1.212a4.852 4.852 0 0 0-4.606-4.843l-.242-.006H7.273v-2.424h14.545zM14.545 2.424c6.285 0 11.453 4.784 12.061 10.909h-2.439a9.698 9.698 0 0 0-19.244 0h-2.44C3.091 7.208 8.26 2.424 14.545 2.424z"/>
    </symbol>
    <symbol id="shopping" viewBox="0 0 32 32">
      <path d="M26.667 29.333H5.334A1.334 1.334 0 0 1 4 27.999v-24a1.335 1.335 0 0 1 1.334-1.334h21.333a1.335 1.335 0 0 1 1.334 1.334v24a1.334 1.334 0 0 1-1.334 1.334zm-1.334-2.666V5.334H6.666v21.333h18.667zM12 8v2.667a4.003 4.003 0 0 0 4 4 4.003 4.003 0 0 0 4-4V8h2.667v2.667a6.67 6.67 0 0 1-11.381 4.714 6.668 6.668 0 0 1-1.953-4.714V8H12z"/>
    </symbol>
    <symbol id="temperature" viewBox="0 0 32 32">
      <path d="M10.667 6.667a5.332 5.332 0 1 1 10.666 0v7.007a9.335 9.335 0 0 1 .191 15.182 9.334 9.334 0 0 1-14.356-10.54 9.329 9.329 0 0 1 3.499-4.642V6.667zm1.525 9.193a6.666 6.666 0 1 0 7.616 0l-1.141-.796V6.667a2.668 2.668 0 0 0-5.334 0v8.397l-1.141.796zm-1.525 5.473h10.667a5.332 5.332 0 1 1-10.666 0z"/>
    </symbol>
    <symbol id="twitter" viewBox="0 0 32 32">
      <path d="M20.4 7.4a3.866 3.866 0 0 0-3.866 3.796l-.037 2.1a.799.799 0 0 1-.907.778l-2.081-.283c-2.739-.373-5.363-1.635-7.88-3.732-.797 4.413.76 7.471 4.511 9.829l2.329 1.464a.796.796 0 0 1 .374.65.798.798 0 0 1-.328.674l-2.123 1.551c1.263.079 2.461.023 3.456-.175 6.291-1.256 10.473-5.989 10.473-13.797 0-.637-1.349-2.855-3.92-2.855zm-6.533 3.747a6.533 6.533 0 0 1 11.18-4.473c.948-.007 1.755.233 3.559-.86-.447 2.187-.667 3.136-1.619 4.441 0 10.189-6.263 15.144-12.617 16.412-4.357.869-10.693-.559-12.509-2.455.925-.072 4.685-.476 6.859-2.067-1.839-1.212-9.157-5.519-4.348-17.097 2.257 2.636 4.547 4.431 6.867 5.383 1.544.633 1.923.62 2.631.717l-.001-.001z"/>
    </symbol>
  </defs>
</svg>
